<?xml version="1.0" encoding="utf-8"?>
<!-- Generator: Adobe Illustrator 24.0.1, SVG Export Plug-In . SVG Version: 6.00 Build 0)  -->
<svg version="1.1" id="Layer_1" xmlns="http://www.w3.org/2000/svg" xmlns:xlink="http://www.w3.org/1999/xlink" x="0px" y="0px"
	 viewBox="0 0 18 19" style="enable-background:new 0 0 18 19;" xml:space="preserve">
<style type="text/css">
	.st0{fill:#FFFFFF;}
</style>
<g>
	<path class="st0" d="M2.46,17.86C2.52,18.52,3.07,19,3.74,19h10.52c0.67,0,1.22-0.5,1.28-1.14L16.72,5.7H1.28L2.46,17.86z"/>
	<path class="st0" d="M16.72,1.9h-5.14V1.26c0-0.7-0.57-1.26-1.28-1.26H7.72C7.01,0,6.44,0.56,6.44,1.26V1.9H1.28
		C0.57,1.9,0,2.46,0,3.16c0,0.7,0.57,1.26,1.28,1.26h15.44c0.71,0,1.28-0.56,1.28-1.26C18,2.46,17.43,1.9,16.72,1.9z"/>
</g>
</svg>
